<svg id="Layer_1" viewBox="0 0 512 512" xmlns="http://www.w3.org/2000/svg" data-name="Layer 1"><g fill-rule="evenodd"><g fill="#2196f3"><path d="m204.166 28.682-5.421-16.681h114.511l-5.422 16.681z" fill="#2196f3" style="fill: rgb(255, 255, 255);"></path><path d="m389.952 442.122v46.878a11.01 11.01 0 0 1 -11 11h-245.902a11.01 11.01 0 0 1 -11-11v-46.878z" fill="#2196f3" style="fill: rgb(255, 255, 255);"></path><path d="m166.873 255.681 16.026-13.7a4 4 0 0 0 1.325-3.86 73.646 73.646 0 0 1 0-30.127 4 4 0 0 0 -1.325-3.859l-16.026-13.7 16.314-28.265 19.9 7.046a4 4 0 0 0 4.007-.79 72.932 72.932 0 0 1 26.064-15.064 4 4 0 0 0 2.682-3.076l3.848-20.736h32.628l3.848 20.736a4 4 0 0 0 2.682 3.076 72.932 72.932 0 0 1 26.064 15.064 4 4 0 0 0 4.006.79l19.893-7.046 16.331 28.266-16.043 13.7a4.006 4.006 0 0 0 -1.321 3.864 73.627 73.627 0 0 1 0 30.123 4 4 0 0 0 1.319 3.862l16.043 13.7-16.331 28.267-19.893-7.052a4 4 0 0 0 -4.006.789 72.872 72.872 0 0 1 -26.064 15.074 3.994 3.994 0 0 0 -2.682 3.072l-3.848 20.731h-32.628l-3.848-20.736a4 4 0 0 0 -2.682-3.071 72.877 72.877 0 0 1 -26.064-15.07 4.006 4.006 0 0 0 -4.006-.789l-19.9 7.051z" fill="#2196f3" style="fill: rgb(255, 255, 255);"></path></g><path d="m256 191.989a31.074 31.074 0 1 1 -31.071 31.071 31.1 31.1 0 0 1 31.071-31.071zm0 78.146a47.075 47.075 0 1 0 -47.069-47.075 47.12 47.12 0 0 0 47.069 47.075zm-67.861-32.827a7.983 7.983 0 0 1 -2.642 7.718l-13.497 11.535 12.988 22.5 16.762-5.939a8.012 8.012 0 0 1 8.011 1.58 68.779 68.779 0 0 0 24.639 14.252 8 8 0 0 1 5.369 6.142l3.241 17.466h25.976l3.241-17.461a7.991 7.991 0 0 1 5.369-6.143 68.774 68.774 0 0 0 24.641-14.252 8.012 8.012 0 0 1 8.011-1.58l16.757 5.939 13-22.5-13.505-11.539a7.985 7.985 0 0 1 -2.637-7.723 69.643 69.643 0 0 0 0-28.486 8 8 0 0 1 2.637-7.717l13.512-11.535-13-22.5-16.762 5.935a7.989 7.989 0 0 1 -8.011-1.58 68.9 68.9 0 0 0 -24.639-14.248 8 8 0 0 1 -5.369-6.148l-3.241-17.465h-25.978l-3.241 17.465a8 8 0 0 1 -5.369 6.148 68.9 68.9 0 0 0 -24.641 14.243 7.989 7.989 0 0 1 -8.011 1.585l-16.762-5.935-12.988 22.499 13.5 11.536a7.98 7.98 0 0 1 2.642 7.718 69.667 69.667 0 0 0 0 28.491zm-33.331 21.492 19.65 34.029a8 8 0 0 0 9.6 3.538l18.7-6.623a84.254 84.254 0 0 0 22.121 12.785l3.609 19.494a8 8 0 0 0 7.87 6.543h39.29a8 8 0 0 0 7.86-6.543l3.609-19.489a84.49 84.49 0 0 0 22.121-12.79l18.711 6.623a7.982 7.982 0 0 0 9.587-3.538l19.656-34.029a8 8 0 0 0 -1.731-10.082l-15.093-12.88a85.2 85.2 0 0 0 0-25.547l15.093-12.879a8 8 0 0 0 1.731-10.082l-19.654-34.03a7.982 7.982 0 0 0 -9.587-3.538l-18.711 6.624a84.462 84.462 0 0 0 -22.121-12.79l-3.609-19.489a8 8 0 0 0 -7.86-6.544h-39.29a8 8 0 0 0 -7.87 6.544l-3.609 19.489a84.382 84.382 0 0 0 -22.121 12.79l-18.7-6.624a8 8 0 0 0 -9.6 3.538l-19.65 34.03a7.992 7.992 0 0 0 1.741 10.082l15.083 12.879a85.2 85.2 0 0 0 0 25.547l-15.083 12.88a7.99 7.99 0 0 0 -1.741 10.082zm126.932 212.261a8 8 0 0 1 -8 8h-35.479a8 8 0 1 1 0-16h35.478a8 8 0 0 1 8 8zm-148.69-455.061a7.008 7.008 0 0 0 -7 7v407.124h259.9v-407.124a7.008 7.008 0 0 0 -7-7h-54.471a7.1 7.1 0 0 1 -.26 1.095l-5.869 18.06a8 8 0 0 1 -7.609 5.524h-109.481a8 8 0 0 1 -7.61-5.524l-5.869-18.055a6.563 6.563 0 0 1 -.26-1.095zm174.7 0-2.821 8.681h-97.857l-2.821-8.681zm71.2 480a7.009 7.009 0 0 0 7-7v-42.878h-259.9v42.878a7.009 7.009 0 0 0 7 7zm-245.9 16h245.9a23.02 23.02 0 0 0 23-23v-466a23.019 23.019 0 0 0 -23-23h-245.9a23.019 23.019 0 0 0 -23 23v466a23.02 23.02 0 0 0 23 23z" fill="#000000" style="fill: rgb(255, 255, 255);"></path></g></svg>